name Walk7.mot
datacolumns 19
datarows 20
range 2.12000000 2.21500000
endheader

                time	   L_ground_force_vx	   L_ground_force_vy	   L_ground_force_vz	   L_ground_force_px	   L_ground_force_py	   L_ground_force_pz	   R_ground_force_vx	   R_ground_force_vy	   R_ground_force_vz	   R_ground_force_px	   R_ground_force_py	   R_ground_force_pz	   L_ground_torque_x	   L_ground_torque_y	   L_ground_torque_z	   R_ground_torque_x	   R_ground_torque_y	   R_ground_torque_z	
          2.12000000	        -10.74232148	         86.45880310	         -1.84838942	         -0.16274645	          0.00000000	         -0.02180684	         -0.00000000	          0.00000000	          0.00000000	          0.00000000	          0.00000000	          0.00000000	          0.00000000	          0.01101670	          0.00000000	          0.00000000	          0.00000000	          0.00000000	
          2.12500000	        -16.84477451	        128.60842592	         -3.37693694	         -0.21109652	          0.00000000	         -0.02814150	         -0.00000000	          0.00000000	          0.00000000	         -0.00000000	          0.00000000	         -0.00000000	          0.00000000	          0.02904360	          0.00000000	          0.00000000	          0.00000000	          0.00000000	
          2.13000000	        -24.28476248	        178.47702549	         -5.34394378	         -0.26051592	          0.00000000	         -0.03455775	          0.00000000	         -0.00000000	         -0.00000000	         -0.00000000	          0.00000000	         -0.00000000	          0.00000000	          0.05356973	          0.00000000	          0.00000000	         -0.00000000	          0.00000000	
          2.13500000	        -32.94333261	        234.33636718	         -7.74655151	         -0.30693208	          0.00000000	         -0.04052046	          0.00000000	         -0.00000000	         -0.00000000	         -0.00000000	          0.00000000	         -0.00000000	          0.00000000	          0.08525421	          0.00000000	          0.00000000	         -0.00000000	          0.00000000	
          2.14000000	        -42.69041432	        293.41528570	        -10.48911828	         -0.34761428	          0.00000000	         -0.04570803	          0.00000000	         -0.00000000	         -0.00000000	         -0.00000000	          0.00000000	         -0.00000000	          0.00000000	          0.12525198	          0.00000000	          0.00000000	         -0.00000000	          0.00000000	
          2.14500000	        -53.43352523	        352.75705440	        -13.31339687	         -0.38126378	          0.00000000	         -0.05000280	          0.00000000	         -0.00000000	         -0.00000000	         -0.00000000	          0.00000000	         -0.00000000	          0.00000000	          0.17660652	          0.00000000	          0.00000000	         -0.00000000	          0.00000000	
          2.15000000	        -64.97020210	        410.04078207	        -15.85362245	         -0.40760989	          0.00000000	         -0.05341835	          0.00000000	         -0.00000000	         -0.00000000	         -0.00000000	          0.00000000	         -0.00000000	          0.00000000	          0.24244377	          0.00000000	          0.00000000	         -0.00000000	          0.00000000	
          2.15500000	        -76.84316266	        463.53838152	        -17.81960137	         -0.42706743	          0.00000000	         -0.05604128	          0.00000000	         -0.00000000	         -0.00000000	         -0.00000000	          0.00000000	         -0.00000000	          0.00000000	          0.32195116	          0.00000000	          0.00000000	         -0.00000000	          0.00000000	
          2.16000000	        -88.33901499	        511.89799973	        -19.08008315	         -0.44045649	          0.00000000	         -0.05799276	          0.00000000	         -0.00000000	         -0.00000000	         -0.00000000	          0.00000000	         -0.00000000	          0.00000000	          0.40876222	          0.00000000	          0.00000000	         -0.00000000	          0.00000000	
          2.16500000	        -98.64808940	        554.26345809	        -19.58867838	         -0.44878798	          0.00000000	         -0.05940701	          0.00000000	         -0.00000000	         -0.00000000	         -0.00000000	          0.00000000	         -0.00000000	          0.00000000	          0.49158427	          0.00000000	          0.00000000	         -0.00000000	          0.00000000	
          2.17000000	       -107.15852932	        590.32743423	        -19.28918311	         -0.45310805	          0.00000000	         -0.06041883	          0.00000000	         -0.00000000	         -0.00000000	         -0.00000000	          0.00000000	         -0.00000000	          0.00000000	          0.55698051	          0.00000000	          0.00000000	         -0.00000000	          0.00000000	
          2.17500000	       -113.68814278	        620.14997321	        -18.09763064	         -0.45439438	          0.00000000	         -0.06115305	          0.00000000	         -0.00000000	         -0.00000000	         -0.00000000	          0.00000000	         -0.00000000	          0.00000000	          0.59298039	          0.00000000	          0.00000000	         -0.00000000	          0.00000000	
          2.18000000	       -118.45083821	        644.01938446	        -15.93747729	         -0.45349918	          0.00000000	         -0.06171771	          0.00000000	         -0.00000000	         -0.00000000	         -0.00000000	          0.00000000	         -0.00000000	          0.00000000	          0.59117128	          0.00000000	          0.00000000	         -0.00000000	          0.00000000	
          2.18500000	       -121.82018444	        662.44885268	        -12.76838385	         -0.45112793	          0.00000000	         -0.06219949	          0.00000000	         -0.00000000	         -0.00000000	         -0.00000000	          0.00000000	         -0.00000000	          0.00000000	          0.54832482	          0.00000000	          0.00000000	         -0.00000000	          0.00000000	
          2.19000000	       -124.11773686	        676.16510033	         -8.60347862	         -0.44783947	          0.00000000	         -0.06266244	          0.00000000	         -0.00000000	         -0.00000000	         -0.00000000	          0.00000000	         -0.00000000	          0.00000000	          0.46690355	          0.00000000	          0.00000000	         -0.00000000	          0.00000000	
          2.19500000	       -125.55059089	        686.01586772	         -3.53058752	         -0.44405827	          0.00000000	         -0.06314991	          0.00000000	         -0.00000000	         -0.00000000	          0.00000000	          0.00000000	          0.00000000	          0.00000000	          0.35504458	          0.00000000	          0.00000000	         -0.00000000	          0.00000000	
          2.20000000	       -126.25915340	        692.83787367	          2.27391075	         -0.44009432	          0.00000000	         -0.06368573	         -0.00000000	          0.00000000	          0.00000000	          0.00000000	          0.00000000	          0.00000000	          0.00000000	          0.22639403	          0.00000000	          0.00000000	          0.00000000	          0.00000000	
          2.20500000	       -126.36846578	        697.31291182	          8.54639924	         -0.43617009	          0.00000000	         -0.06427528	         -0.00000000	          0.00000000	          0.00000000	          0.00000000	          0.00000000	          0.00000000	          0.00000000	          0.09949307	          0.00000000	          0.00000000	          0.00000000	          0.00000000	
          2.21000000	       -125.97505036	        699.85832460	         14.95161314	         -0.43244728	          0.00000000	         -0.06490720	         -0.00000000	          0.00000000	          0.00000000	          0.00000000	          0.00000000	          0.00000000	          0.00000000	         -0.00353176	          0.00000000	          0.00000000	          0.00000000	          0.00000000	
          2.21500000	       -125.08420773	        700.65554515	         21.12415343	         -0.42904342	          0.00000000	         -0.06555812	         -0.00000000	          0.00000000	          0.00000000	          0.00000000	          0.00000000	          0.00000000	          0.00000000	         -0.06216220	          0.00000000	          0.00000000	          0.00000000	          0.00000000	
